# xmcd CD database file
#
# Track frame offsets:
#	150
#	19140
#	33245
#	49297
#	66655
#	82927
#	101537
#	113252
#	127995
#	142360
#	153755
#	169282
#	185585
#
# Disc length: 2698 seconds
#
# Revision: 0
# Processed by: cddbd v1.4PL0 Copyright (c) Steve Scherf et al.
# Submitted via: CDex 1.40Beta8
#
DISCID=ad0a880d
DTITLE=Ninon - With all the love
DYEAR=1900
DGENRE=Country
TTITLE0=All night rodeo
TTITLE1=Daddy's hands
TTITLE2=If it wasn't for the wind
TTITLE3=Rock and roll girl
TTITLE4=Sweet memories
TTITLE5=Medley
TTITLE6=Wasn't that love (duet with Jimmy Lawton)
TTITLE7=Why
TTITLE8=Singles bar
TTITLE9=That's what I like about you
TTITLE10=With all the love
TTITLE11=You've got me rock 'n rollin'
TTITLE12=We're walking tears
EXTD=ID3G: 2
EXTT0=
EXTT1=
EXTT2=
EXTT3=
EXTT4=
EXTT5=
EXTT6=
EXTT7=
EXTT8=
EXTT9=
EXTT10=
EXTT11=
EXTT12=
PLAYORDER=
